<svg xmlns="http://www.w3.org/2000/svg" viewBox="0 0 491.996 491.996"><path d="M7.864 367.01l16.116 16.228c5.072 5.068 11.82 7.86 19.032 7.86 7.208 0 13.964-2.792 19.036-7.86l183.84-183.848L429.94 383.442c5.064 5.068 11.82 7.856 19.028 7.856 7.208 0 13.968-2.788 19.036-7.856l16.12-16.128c10.496-10.488 10.496-27.572 0-38.06L264.988 109.33c-5.064-5.064-11.812-8.632-19.084-8.632h-.084c-7.212 0-13.96 3.572-19.024 8.632L7.864 328.658C2.792 333.722.008 340.674 0 347.882c0 7.212 2.792 14.068 7.864 19.128z" fill="#396091"/></svg>